
<svg xmlns="http://www.w3.org/2000/svg" version="1.1" xmlns:xlink="http://www.w3.org/1999/xlink" xmlns:svgjs="http://svgjs.dev/svgjs" width="1500" height="1687" viewBox="0 0 1500 1687"><g transform="matrix(1,0,0,1,0,0)"><svg viewBox="0 0 320 360" data-background-color="#ffffff" preserveAspectRatio="xMidYMid meet" height="1687" width="1500" xmlns="http://www.w3.org/2000/svg" xmlns:xlink="http://www.w3.org/1999/xlink"><g id="tight-bounds" transform="matrix(1,0,0,1,0,0)"><svg viewBox="0 0 320 360" height="360" width="320"><g><svg></svg></g><g><svg viewBox="0 0 320 360" height="360" width="320"><g><path d="M297.491 100.645c-12.426-21.51-112.674-79.355-137.491-79.355-24.817 0-125.028 57.845-137.491 79.355-11.591 20.02-11.591 138.726 0 158.746 12.463 21.474 112.674 79.319 137.491 79.319 24.817 0 125.064-57.845 137.491-79.355 11.591-20.02 11.591-138.69 0-158.71zM309.481 93.705c-14.461-24.998-119.469-86.295-149.481-86.295-30.012 0-135.02 61.297-149.481 86.295-14.025 24.199-14.025 148.391 0 172.59 14.461 24.998 119.469 86.295 149.481 86.295 30.012 0 135.02-61.297 149.481-86.259 14.025-24.235 14.025-148.427 0-172.626zM300.906 261.353c-12.753 22.055-115.472 81.317-140.906 81.318-25.434 0-128.153-59.298-140.906-81.354-11.881-20.529-11.881-142.178 0-162.707 12.753-22.019 115.472-81.281 140.906-81.281 25.434 0 128.153 59.298 140.906 81.318 11.881 20.529 11.881 142.178 0 162.706z" fill="#000000" fill-rule="nonzero" stroke="none" stroke-width="1" stroke-linecap="butt" stroke-linejoin="miter" stroke-miterlimit="10" stroke-dasharray="" stroke-dashoffset="0" font-family="none" font-weight="none" font-size="none" text-anchor="none" style="mix-blend-mode: normal" data-fill-palette-color="tertiary"></path></g><g transform="matrix(1,0,0,1,48,131.35982217282577)"><svg viewBox="0 0 224 97.28035565434843" height="97.28035565434843" width="224"><g><svg viewBox="0 0 224 97.28035565434843" height="97.28035565434843" width="224"><g><svg viewBox="0 0 224 97.28035565434843" height="97.28035565434843" width="224"><g><svg viewBox="0 0 224 97.28035565434843" height="97.28035565434843" width="224"><g id="textblocktransform"><svg viewBox="0 0 224 97.28035565434843" height="97.28035565434843" width="224" id="textblock"><g><svg viewBox="0 0 224 97.28035565434843" height="97.28035565434843" width="224"><g transform="matrix(1,0,0,1,0,0)"><svg width="224" viewBox="5.4 -38.16 87.86 38.16" height="97.28035565434843" data-palette-color="#ffffff"><path d="M5.4 0L5.4-38.16 13.13-38.16 13.13-28.2 36.87-28.2 36.87-38.16 44.63-38.16 44.63 0 36.87 0 36.87-21.58 13.13-21.58 13.13 0 5.4 0ZM55.47 0L55.47-38.16 63.21-38.16 63.21-18.41 83.35-38.16 93.26-38.16 74.46-19.95 93.26 0 82.96 0 68.89-14.55 63.21-9.06 63.21 0 55.47 0Z" opacity="1" transform="matrix(1,0,0,1,0,0)" fill="#ffffff" class="wordmark-text-0" data-fill-palette-color="quaternary" id="text-0"></path></svg></g></svg></g></svg></g></svg></g></svg></g></svg></g></svg></g></svg></g><defs></defs></svg><rect width="320" height="360" fill="none" stroke="none" visibility="hidden"></rect></g></svg></g></svg>