<svg xmlns="http://www.w3.org/2000/svg" version="1.1" xmlns:xlink="http://www.w3.org/1999/xlink" xmlns:svgjs="http://svgjs.dev/svgjs" width="308.7612359841165" height="304.915625" viewBox="0 0 1500 1406" class="css-1j8o68f" id="svg23" sodipodi:docname="logo.svg"><g transform="matrix(1,0,0,1,0,0)"><svg viewBox="0 0 384 360" data-background-color="#ffffff" preserveAspectRatio="xMidYMid meet" height="1406" width="1500" xmlns="http://www.w3.org/2000/svg" xmlns:xlink="http://www.w3.org/1999/xlink"><g id="tight-bounds" transform="matrix(1,0,0,1,0,0)"><svg viewBox="0 0 384 360" height="360" width="384"><g><svg></svg></g><g><svg viewBox="0 0 384 360" height="360" width="384"><g><path d="M362.354 145.441v-42.24c0-21.12-19.163-38.402-42.587-38.402h-93.208c-15.198 0-28.337-8.831-34.559-21.646-6.222 12.81-19.36 21.646-34.559 21.646h-93.208c-23.424 0-42.587 17.282-42.587 38.402v42.24c0 15.198-8.831 28.337-21.646 34.559 12.81 6.222 21.646 19.36 21.646 34.559v42.24c0 21.12 19.163 38.402 42.587 38.402h93.208c15.198 0 28.337 8.831 34.559 21.646 6.222-12.81 19.36-21.646 34.559-21.646h93.208c23.424 0 42.587-17.282 42.587-38.402v-42.24c0-15.198 8.831-28.337 21.646-34.559-12.81-6.222-21.646-19.36-21.646-34.559z" fill="#000000" fill-rule="nonzero" stroke="none" stroke-width="1" stroke-linecap="butt" stroke-linejoin="miter" stroke-miterlimit="10" stroke-dasharray="" stroke-dashoffset="0" font-family="none" font-weight="none" font-size="none" text-anchor="none" style="mix-blend-mode: normal" data-fill-palette-color="tertiary"></path></g><g transform="matrix(1,0,0,1,76.80000000000001,108.8394009942005)"><svg viewBox="0 0 230.39999999999998 142.321198011599" height="142.321198011599" width="230.39999999999998"><g><svg viewBox="0 0 230.39999999999998 142.321198011599" height="142.321198011599" width="230.39999999999998"><g><svg viewBox="0 0 230.39999999999998 142.321198011599" height="142.321198011599" width="230.39999999999998"><g id="textblocktransform"><svg viewBox="0 0 230.39999999999998 142.321198011599" height="142.321198011599" width="230.39999999999998" id="textblock"><g><svg viewBox="0 0 230.39999999999998 142.321198011599" height="142.321198011599" width="230.39999999999998"><rect width="230.39999999999998" height="142.321198011599" x="0" y="0" opacity="1" fill="#000000" data-fill-palette-color="tertiary"></rect><g transform="matrix(1,0,0,1,15.471,15.471)"><svg width="199.45799999999997" viewBox="3.5 -33.7 60.35 33.7" height="111.37919801159899" data-palette-color="#ffffff"><path d="M23.65-19.6L23.65-33.7 30-33.7 30 0 23.65 0 23.65-14.15 9.8-14.15 9.8 0 3.5 0 3.5-33.7 9.8-33.7 9.8-19.6 23.65-19.6ZM43.3 0L37 0 37-33.7 43.3-33.7 43.3 0ZM63-33.7L51.3-16.8 63.85 0 55.9 0 43.8-16.7 55.45-33.7 63-33.7Z" opacity="1" transform="matrix(1,0,0,1,0,0)" fill="#ffffff" class="wordmark-text-0" data-fill-palette-color="quaternary" id="text-0"></path></svg></g></svg></g></svg></g></svg></g></svg></g></svg></g></svg></g><defs></defs></svg><rect width="384" height="360" fill="none" stroke="none" visibility="hidden"></rect></g></svg></g></svg>